<svg width="1024" height="1024" viewBox="0 0 1024 1024" fill="none" xmlns="http://www.w3.org/2000/svg">
<rect width="1024" height="1024" fill="#1A1A1A"/>
<path d="M249.6 513.821C249.6 353.404 345.604 228.657 508.354 228.657C635.501 228.657 712.434 301.852 727.046 402.417H659.648C646.923 334.299 592.25 287.858 506.433 287.858C386.9 287.858 319.536 384.616 319.536 513.204C319.536 641.792 393.28 736.63 507.085 736.63C610.085 736.63 659.031 666.625 665.376 586.399H733.391C732.774 640.489 706.707 701.61 667.914 739.819C629.773 777.377 573.831 797.099 504.512 797.099C350.028 797.717 249.6 679.316 249.6 513.821Z" fill="white"/>
<path d="M727.05 241.387C727.05 218.475 744.543 201.6 766.151 201.6C787.76 201.6 805.252 218.475 805.252 241.387C805.252 264.299 787.76 281.174 766.151 281.174C744.543 281.174 727.05 264.299 727.05 241.387ZM798.255 241.387C798.255 221.974 784.57 207.328 766.151 207.328C747.733 207.328 733.738 221.665 733.738 241.387C733.738 261.109 747.424 275.446 766.151 275.446C784.879 275.446 798.255 261.109 798.255 241.387V241.387ZM750.888 220.053H770.267C777.882 220.053 783.61 224.821 783.61 231.818C783.61 236.585 781.071 240.427 775.652 241.696C779.768 242.965 781.689 245.194 782.341 250.305C782.992 256.342 782.649 260.492 784.261 261.452V262.104H776.304C776.304 262.104 774.726 257.028 774.383 252.569C774.383 248.11 771.536 245.263 766.426 245.263H759.429V262.138H751.162V219.744L750.854 220.053H750.888ZM759.154 238.815H768.381C772.84 238.815 775.378 236.277 775.378 232.778C775.378 229.279 773.148 226.741 768.381 226.741H759.154V238.849V238.815Z" fill="white"/>
</svg>
